<mxfile host="app.diagrams.net" agent="Mozilla/5.0 (Windows NT 10.0; Win64; x64) AppleWebKit/537.36 (KHTML, like Gecko) Chrome/128.0.0.0 Safari/537.36" version="24.7.16">
  <diagram name="Page-1" id="tPXe9WNnx-jKCQzKaOZj">
    <mxGraphModel grid="1" page="1" gridSize="10" guides="1" tooltips="1" connect="1" arrows="1" fold="1" pageScale="1" pageWidth="827" pageHeight="1169" math="0" shadow="0">
      <root>
        <mxCell id="0" />
        <mxCell id="1" parent="0" />
        <mxCell id="b4NvkVX6qQZtYTi9SCRi-8" style="edgeStyle=orthogonalEdgeStyle;rounded=0;orthogonalLoop=1;jettySize=auto;html=1;exitX=0.5;exitY=1;exitDx=0;exitDy=0;exitPerimeter=0;" edge="1" parent="1" source="b4NvkVX6qQZtYTi9SCRi-1" target="b4NvkVX6qQZtYTi9SCRi-3">
          <mxGeometry relative="1" as="geometry" />
        </mxCell>
        <mxCell id="b4NvkVX6qQZtYTi9SCRi-1" value="&lt;b&gt;START&lt;/b&gt;" style="strokeWidth=2;html=1;shape=mxgraph.flowchart.start_1;whiteSpace=wrap;fillColor=#6d8764;fontColor=#ffffff;strokeColor=#3A5431;" vertex="1" parent="1">
          <mxGeometry x="364" y="140" width="100" height="60" as="geometry" />
        </mxCell>
        <mxCell id="b4NvkVX6qQZtYTi9SCRi-2" value="&lt;b&gt;END&lt;/b&gt;" style="strokeWidth=2;html=1;shape=mxgraph.flowchart.start_1;whiteSpace=wrap;fillColor=#6d8764;fontColor=#ffffff;strokeColor=#3A5431;" vertex="1" parent="1">
          <mxGeometry x="364" y="720" width="100" height="60" as="geometry" />
        </mxCell>
        <mxCell id="b4NvkVX6qQZtYTi9SCRi-9" style="edgeStyle=orthogonalEdgeStyle;rounded=0;orthogonalLoop=1;jettySize=auto;html=1;exitX=0.5;exitY=1;exitDx=0;exitDy=0;entryX=0.5;entryY=0;entryDx=0;entryDy=0;" edge="1" parent="1" source="b4NvkVX6qQZtYTi9SCRi-3" target="b4NvkVX6qQZtYTi9SCRi-5">
          <mxGeometry relative="1" as="geometry" />
        </mxCell>
        <mxCell id="b4NvkVX6qQZtYTi9SCRi-3" value="&lt;div style=&quot;&quot;&gt;Input P, r, n, t&lt;br&gt;&lt;/div&gt;" style="shape=parallelogram;html=1;strokeWidth=2;perimeter=parallelogramPerimeter;whiteSpace=wrap;rounded=1;arcSize=12;size=0.23;align=center;fillColor=#b1ddf0;strokeColor=#10739e;" vertex="1" parent="1">
          <mxGeometry x="318" y="300" width="191" height="60" as="geometry" />
        </mxCell>
        <mxCell id="b4NvkVX6qQZtYTi9SCRi-10" style="edgeStyle=orthogonalEdgeStyle;rounded=0;orthogonalLoop=1;jettySize=auto;html=1;exitX=0.5;exitY=1;exitDx=0;exitDy=0;entryX=0.5;entryY=0;entryDx=0;entryDy=0;" edge="1" parent="1" source="b4NvkVX6qQZtYTi9SCRi-5" target="b4NvkVX6qQZtYTi9SCRi-7">
          <mxGeometry relative="1" as="geometry" />
        </mxCell>
        <mxCell id="b4NvkVX6qQZtYTi9SCRi-5" value="Calculate A" style="rounded=1;whiteSpace=wrap;html=1;absoluteArcSize=1;arcSize=14;strokeWidth=2;fillColor=#76608a;fontColor=#ffffff;strokeColor=#432D57;" vertex="1" parent="1">
          <mxGeometry x="364" y="420" width="100" height="100" as="geometry" />
        </mxCell>
        <mxCell id="b4NvkVX6qQZtYTi9SCRi-7" value="Output P, A,&lt;div&gt;A - P&lt;/div&gt;" style="shape=parallelogram;html=1;strokeWidth=2;perimeter=parallelogramPerimeter;whiteSpace=wrap;rounded=1;arcSize=12;size=0.23;fillColor=#b0e3e6;strokeColor=#0e8088;" vertex="1" parent="1">
          <mxGeometry x="324" y="585" width="180" height="60" as="geometry" />
        </mxCell>
        <mxCell id="b4NvkVX6qQZtYTi9SCRi-12" style="edgeStyle=orthogonalEdgeStyle;rounded=0;orthogonalLoop=1;jettySize=auto;html=1;exitX=0.5;exitY=1;exitDx=0;exitDy=0;entryX=0.5;entryY=0;entryDx=0;entryDy=0;entryPerimeter=0;" edge="1" parent="1" source="b4NvkVX6qQZtYTi9SCRi-7" target="b4NvkVX6qQZtYTi9SCRi-2">
          <mxGeometry relative="1" as="geometry" />
        </mxCell>
      </root>
    </mxGraphModel>
  </diagram>
</mxfile>
